<svg xmlns="http://www.w3.org/2000/svg" viewBox="0 0 30.09 26.19"><defs><style>.cls-1{fill:#fff4e0;fill-rule:evenodd;}</style></defs><g id="Layer_2" data-name="Layer 2"><g id="volume_icon"><path class="cls-1" d="M19,6.59a1,1,0,0,1,.75.32s0,0,0,0a8.21,8.21,0,0,1,2.49,6,8.24,8.24,0,0,1-2.49,6h0l-.09.09h0a1.07,1.07,0,0,1-1.51,0,1,1,0,0,1-.31-.76,1,1,0,0,1,.31-.75l.08-.08A6.16,6.16,0,0,0,20.1,13a6.16,6.16,0,0,0-1.87-4.52h0A1.08,1.08,0,0,1,19,6.59ZM14.42.09h0A.32.32,0,0,1,14.66,0a.94.94,0,0,1,1.06,1.07V25.12a.94.94,0,0,1-1.06,1.07l-.12,0h0a.41.41,0,0,1-.11-.07L5.79,18.87H1.07A.94.94,0,0,1,0,17.81V8.51A.94.94,0,0,1,1.07,7.45H5.71ZM21,4.51a1,1,0,0,1,.75-.3,1,1,0,0,1,.75.32A11.73,11.73,0,0,1,25.91,13a11.74,11.74,0,0,1-3.51,8.56,1,1,0,0,1-.75.32,1.06,1.06,0,0,1-.76-.3,1.06,1.06,0,0,1,0-1.51A9.7,9.7,0,0,0,23.77,13,9.68,9.68,0,0,0,21,6a1.07,1.07,0,0,1-.3-.76A1,1,0,0,1,21,4.51Zm9.11,8.32V13a16,16,0,0,1-4.61,11.4,1.07,1.07,0,0,1-1.51,0h0a1,1,0,0,1-.32-.75,1,1,0,0,1,.3-.76h0A13.72,13.72,0,0,0,28,13a13.65,13.65,0,0,0-3.85-9.73,1,1,0,0,1-.3-.76,1.05,1.05,0,0,1,.34-.75,1,1,0,0,1,.76-.29,1.06,1.06,0,0,1,.75.33h0A15.91,15.91,0,0,1,30.09,12.83Z"/></g></g></svg>